# xmcd CD database file
#
# Track frame offsets:
#	150
#	5646
#	23162
#	43816
#	67973
#	89282
#	114983
#	140706
#	164526
#	194929
#	220031
#	247202
#	267784
#	289420
#	313558
#
# Disc length: 4591 seconds
#
# Revision: 1
# Processed by: cddbd v1.5.2PL0 Copyright (c) Steve Scherf et al.
# Submitted via: CDex 1.51
#
DISCID=e711ed0f
DTITLE=Diam's - Dans ma bulle
DYEAR=2006
DGENRE=Rap
TTITLE0=Introduction
TTITLE1=La boulette
TTITLE2=Ma France à moi
TTITLE3=Feuile blanche
TTITLE4=Jeune demoiselle
TTITLE5=Car tu portes mon nom
TTITLE6=Marine
TTITLE7=Dans ma bulle
TTITLE8=Par amour
TTITLE9=Big up
TTITLE10=Confessions nocturnes ft Vitaa
TTITLE11=T.S.
TTITLE12=Me  revoila
TTITLE13=Cause a effet
TTITLE14=Petite banlieusarde
EXTD=YEAR: 2006
EXTT0=
EXTT1=
EXTT2=
EXTT3=
EXTT4=
EXTT5=
EXTT6=
EXTT7=
EXTT8=
EXTT9=
EXTT10=
EXTT11=
EXTT12=
EXTT13=
EXTT14=
PLAYORDER=
